<svg width="158" height="42" viewBox="0 0 158 42" fill="none" xmlns="http://www.w3.org/2000/svg">
<path d="M7.71769 7.18023C11.0644 7.18023 14.451 7.18356 17.8777 7.19023C21.451 7.20356 23.6344 8.7169 24.4277 11.7302C25.2677 14.8902 23.3977 17.0702 21.3877 19.1602C21.0537 19.5049 20.8548 19.9582 20.8272 20.4373C20.7997 20.9165 20.9454 21.3896 21.2377 21.7702C22.3277 23.1902 24.0677 24.4202 24.4177 26.2502C25.1977 30.2969 23.491 32.8436 19.2977 33.8902C17.9977 34.2169 16.9077 33.9369 16.0277 33.0502C13.1477 30.1502 9.85769 26.8669 6.15769 23.2002C5.85591 22.9012 5.48679 22.6801 5.08244 22.5564C4.6781 22.4327 4.25079 22.4099 3.83769 22.4902C2.74436 22.6969 1.98436 23.1502 1.55769 23.8502C0.717693 25.2302 0.871025 26.4902 2.01769 27.6302C5.59103 31.1702 9.24103 34.8202 12.9677 38.5802C13.7677 39.3869 14.731 39.8402 15.8577 39.9402C21.5977 40.4602 25.821 38.7602 28.5277 34.8402C31.4977 30.5202 31.4177 25.2702 28.5577 20.8802C28.3644 20.5869 28.3677 20.2936 28.5677 20.0002C34.0577 12.2802 28.6777 1.38023 19.0677 1.10023C14.3144 0.960227 9.29769 0.966894 4.01769 1.12023C3.22434 1.14081 2.4698 1.46682 1.91234 2.02987C1.35489 2.59292 1.03783 3.34926 1.02769 4.14023C0.987692 7.16023 0.991026 10.2102 1.03769 13.2902C1.05769 14.7569 1.61103 15.9902 2.69769 16.9902C6.38436 20.3969 10.0044 23.9302 13.5577 27.5902C13.9455 27.9909 14.465 28.2453 15.0277 28.3102C16.2277 28.4436 17.121 28.1802 17.7077 27.5202C18.9744 26.0736 18.9277 24.6669 17.5677 23.3002L7.65769 13.4102C7.30436 13.0569 7.12769 12.6302 7.12769 12.1302L7.14769 7.75023C7.14769 7.37023 7.33769 7.18023 7.71769 7.18023Z" stroke="#9799A8" stroke-width="2"/>
<path d="M39.5669 4.11034C39.5669 3.31204 39.2498 2.54644 38.6853 1.98195C38.1208 1.41747 37.3552 1.10034 36.5569 1.10034C35.7586 1.10034 34.993 1.41747 34.4285 1.98195C33.864 2.54644 33.5469 3.31204 33.5469 4.11034C33.5469 4.90864 33.864 5.67425 34.4285 6.23873C34.993 6.80322 35.7586 7.12034 36.5569 7.12034C37.3552 7.12034 38.1208 6.80322 38.6853 6.23873C39.2498 5.67425 39.5669 4.90864 39.5669 4.11034Z" stroke="#9799A8" stroke-width="2"/>
<path d="M55.7078 33.7402C51.2278 33.2502 48.4078 29.1502 48.4478 24.8602C48.5212 17.7402 48.5312 10.9702 48.4778 4.55021C48.4645 2.98354 47.7512 1.86354 46.3378 1.1902C46.0245 1.04354 45.7012 1.0102 45.3678 1.0902C43.4212 1.53687 42.4512 2.75687 42.4578 4.7502C42.4912 10.0902 42.4578 15.8502 42.3578 22.0302C42.2845 26.4835 42.8545 29.8535 44.0678 32.1402C46.5078 36.7269 50.5345 39.3269 56.1478 39.9402C56.5628 39.9797 56.9792 39.9285 57.3678 39.7902C59.1012 39.1702 59.9778 38.3402 59.9978 37.3002C60.0312 35.7602 59.4145 34.7602 58.1478 34.3002C57.4212 34.0269 56.6078 33.8402 55.7078 33.7402Z" stroke="#9799A8" stroke-width="2"/>
<path d="M39.578 14.395C39.5774 14.0076 39.5004 13.6241 39.3515 13.2665C39.2026 12.9088 38.9848 12.584 38.7103 12.3106C38.4359 12.0371 38.1103 11.8204 37.7522 11.6728C37.394 11.5251 37.0102 11.4495 36.6228 11.4502L36.4429 11.4505C35.6605 11.4519 34.9107 11.764 34.3584 12.3182C33.8062 12.8724 33.4967 13.6232 33.4981 14.4056L33.5374 37.0056C33.5381 37.393 33.6151 37.7765 33.764 38.1341C33.9129 38.4918 34.1307 38.8166 34.4052 39.09C34.6796 39.3635 35.0052 39.5802 35.3633 39.7278C35.7215 39.8755 36.1053 39.9511 36.4926 39.9504L36.6727 39.9501C37.455 39.9487 38.2048 39.6366 38.7571 39.0824C39.3093 38.5282 39.6188 37.7774 39.6175 36.995L39.578 14.395Z" stroke="#9799A8" stroke-width="2"/>
<path d="M71.3273 33.3403C68.654 32.2336 66.9939 30.3603 66.3473 27.7203C64.3473 19.5003 74.0873 14.2303 80.1173 19.8403C83.2573 22.7603 87.7973 18.0603 83.4373 14.7103C75.5673 8.6403 64.7173 11.3503 61.0773 20.4403C55.4673 34.4103 72.7673 46.3203 83.9473 36.1703C85.734 34.5503 85.7606 32.927 84.0273 31.3003C83.5897 30.8927 83.0235 30.6514 82.4276 30.6185C81.8317 30.5856 81.244 30.7632 80.7673 31.1203C77.8373 33.3103 74.9973 34.8503 71.3273 33.3403Z" stroke="#9799A8" stroke-width="2"/>
<path d="M114.977 25.6802C114.977 21.8982 113.475 18.2711 110.8 15.5968C108.126 12.9226 104.499 11.4202 100.717 11.4202C96.935 11.4202 93.308 12.9226 90.6337 15.5968C87.9594 18.2711 86.457 21.8982 86.457 25.6802C86.457 29.4622 87.9594 33.0892 90.6337 35.7635C93.308 38.4378 96.935 39.9402 100.717 39.9402C104.499 39.9402 108.126 38.4378 110.8 35.7635C113.475 33.0892 114.977 29.4622 114.977 25.6802Z" stroke="#9799A8" stroke-width="2"/>
<path d="M136.448 14.5302C133.095 11.3102 129.055 10.5936 124.328 12.3802C124.007 12.5013 123.659 12.5337 123.32 12.4739C122.98 12.4141 122.662 12.2644 122.398 12.0402C120.138 10.1002 117.738 12.6402 117.748 15.0402C117.762 21.8602 117.758 29.0702 117.738 36.6702C117.732 37.328 117.963 37.9669 118.388 38.4702C120.162 40.5302 121.815 40.5169 123.348 38.4302C123.636 38.0387 123.803 37.5731 123.828 37.0902C124.062 33.0369 124.092 28.5636 123.918 23.6702C123.628 15.7302 133.698 15.2502 133.878 23.3902C133.978 27.7969 133.988 32.2869 133.908 36.8602C133.902 37.4687 134.103 38.0612 134.478 38.5402C135.292 39.5802 136.145 40.0669 137.038 40.0002C138.892 39.8602 139.848 38.8602 139.908 37.0002C140.055 32.3602 140.095 27.5969 140.028 22.7102C139.948 16.1302 149.808 15.6102 149.928 22.5002C150.008 26.9269 150.028 31.7669 149.988 37.0202C149.982 37.4405 150.077 37.8566 150.265 38.234C150.453 38.6114 150.728 38.9392 151.068 39.1902C152.835 40.4902 154.352 40.2202 155.618 38.3802C155.917 37.9513 156.071 37.4329 156.058 36.9002C155.985 32.5869 155.998 28.1536 156.098 23.6002C156.218 18.2502 153.848 13.9702 148.818 12.1502C144.645 10.6369 140.798 11.4336 137.278 14.5402C136.998 14.7936 136.722 14.7902 136.448 14.5302Z" stroke="#9799A8" stroke-width="2"/>
<path d="M108.957 25.6902C108.957 23.5128 108.092 21.4245 106.552 19.8849C105.013 18.3452 102.925 17.4802 100.747 17.4802C98.5697 17.4802 96.4814 18.3452 94.9418 19.8849C93.4021 21.4245 92.5371 23.5128 92.5371 25.6902C92.5371 27.8677 93.4021 29.9559 94.9418 31.4956C96.4814 33.0352 98.5697 33.9002 100.747 33.9002C102.925 33.9002 105.013 33.0352 106.552 31.4956C108.092 29.9559 108.957 27.8677 108.957 25.6902Z" stroke="#9799A8" stroke-width="2"/>
<path d="M7.14769 7.75023L7.12769 12.1302C7.12769 12.6302 7.30436 13.0569 7.65769 13.4102L17.5677 23.3002C18.9277 24.6669 18.9744 26.0736 17.7077 27.5202C17.121 28.1802 16.2277 28.4436 15.0277 28.3102C14.465 28.2453 13.9455 27.9909 13.5577 27.5902C10.0044 23.9302 6.38436 20.3969 2.69769 16.9902C1.61103 15.9902 1.05769 14.7569 1.03769 13.2902C0.991026 10.2102 0.987692 7.16023 1.02769 4.14023C1.03783 3.34926 1.35489 2.59292 1.91234 2.02987C2.4698 1.46682 3.22434 1.14081 4.01769 1.12023C9.29769 0.966894 14.3144 0.960227 19.0677 1.10023C28.6777 1.38023 34.0577 12.2802 28.5677 20.0002C28.3677 20.2936 28.3644 20.5869 28.5577 20.8802C31.4177 25.2702 31.4977 30.5202 28.5277 34.8402C25.821 38.7602 21.5977 40.4602 15.8577 39.9402C14.731 39.8402 13.7677 39.3869 12.9677 38.5802C9.24103 34.8202 5.59103 31.1702 2.01769 27.6302C0.871025 26.4902 0.717693 25.2302 1.55769 23.8502C1.98436 23.1502 2.74436 22.6969 3.83769 22.4902C4.25079 22.4099 4.6781 22.4327 5.08244 22.5564C5.48679 22.6801 5.85591 22.9012 6.15769 23.2002C9.85769 26.8669 13.1477 30.1502 16.0277 33.0502C16.9077 33.9369 17.9977 34.2169 19.2977 33.8902C23.491 32.8436 25.1977 30.2969 24.4177 26.2502C24.0677 24.4202 22.3277 23.1902 21.2377 21.7702C20.9454 21.3896 20.7997 20.9165 20.8272 20.4373C20.8548 19.9582 21.0537 19.5049 21.3877 19.1602C23.3977 17.0702 25.2677 14.8902 24.4277 11.7302C23.6344 8.7169 21.451 7.20356 17.8777 7.19023C14.451 7.18356 11.0644 7.18023 7.71769 7.18023C7.33769 7.18023 7.14769 7.37023 7.14769 7.75023Z" fill="white"/>
<path d="M36.5569 7.1201C38.2193 7.1201 39.5669 5.77248 39.5669 4.1101C39.5669 2.44772 38.2193 1.1001 36.5569 1.1001C34.8945 1.1001 33.5469 2.44772 33.5469 4.1101C33.5469 5.77248 34.8945 7.1201 36.5569 7.1201Z" fill="white"/>
<path d="M55.7078 33.7402C56.6078 33.8402 57.4212 34.0269 58.1478 34.3002C59.4145 34.7602 60.0312 35.7602 59.9978 37.3002C59.9778 38.3402 59.1012 39.1702 57.3678 39.7902C56.9792 39.9285 56.5628 39.9797 56.1478 39.9402C50.5345 39.3269 46.5078 36.7269 44.0678 32.1402C42.8545 29.8535 42.2845 26.4835 42.3578 22.0302C42.4578 15.8502 42.4912 10.0902 42.4578 4.7502C42.4512 2.75687 43.4212 1.53687 45.3678 1.0902C45.7012 1.0102 46.0245 1.04354 46.3378 1.1902C47.7512 1.86354 48.4645 2.98354 48.4778 4.55021C48.5312 10.9702 48.5212 17.7402 48.4478 24.8602C48.4078 29.1502 51.2278 33.2502 55.7078 33.7402Z" fill="white"/>
<path d="M36.6222 11.4501L36.4422 11.4504C34.8129 11.4533 33.4945 12.7763 33.4973 14.4056L33.5368 37.0055C33.5396 38.6348 34.8627 39.9532 36.4919 39.9504L36.6719 39.9501C38.3012 39.9472 39.6196 38.6242 39.6168 36.9949L39.5773 14.395C39.5745 12.7657 38.2514 11.4473 36.6222 11.4501Z" fill="white"/>
<path d="M71.3273 33.3403C74.9973 34.8503 77.8373 33.3103 80.7673 31.1203C81.244 30.7632 81.8317 30.5856 82.4276 30.6185C83.0235 30.6514 83.5897 30.8927 84.0273 31.3003C85.7606 32.927 85.734 34.5503 83.9473 36.1703C72.7673 46.3203 55.4673 34.4103 61.0773 20.4403C64.7173 11.3503 75.5673 8.6403 83.4373 14.7103C87.7973 18.0603 83.2573 22.7603 80.1173 19.8403C74.0873 14.2303 64.3473 19.5003 66.3473 27.7203C66.9939 30.3603 68.654 32.2336 71.3273 33.3403Z" fill="white"/>
<path d="M114.977 25.6802C114.977 29.4622 113.475 33.0892 110.8 35.7635C108.126 38.4378 104.499 39.9402 100.717 39.9402C96.935 39.9402 93.308 38.4378 90.6337 35.7635C87.9594 33.0892 86.457 29.4622 86.457 25.6802C86.457 21.8982 87.9594 18.2711 90.6337 15.5968C93.308 12.9226 96.935 11.4202 100.717 11.4202C104.499 11.4202 108.126 12.9226 110.8 15.5968C113.475 18.2711 114.977 21.8982 114.977 25.6802ZM108.957 25.6902C108.957 23.5127 108.092 21.4245 106.552 19.8848C105.013 18.3451 102.924 17.4802 100.747 17.4802C98.5696 17.4802 96.4814 18.3451 94.9417 19.8848C93.402 21.4245 92.537 23.5127 92.537 25.6902C92.537 27.8676 93.402 29.9558 94.9417 31.4955C96.4814 33.0352 98.5696 33.9002 100.747 33.9002C102.924 33.9002 105.013 33.0352 106.552 31.4955C108.092 29.9558 108.957 27.8676 108.957 25.6902Z" fill="white"/>
<path d="M137.276 14.5402C140.796 11.4336 144.643 10.6369 148.816 12.1502C153.846 13.9702 156.216 18.2502 156.096 23.6002C155.996 28.1536 155.983 32.5869 156.056 36.9002C156.069 37.4329 155.915 37.9513 155.616 38.3802C154.35 40.2202 152.833 40.4902 151.066 39.1902C150.726 38.9392 150.451 38.6114 150.263 38.234C150.075 37.8566 149.98 37.4405 149.986 37.0202C150.026 31.7669 150.006 26.9269 149.926 22.5002C149.806 15.6102 139.946 16.1302 140.026 22.7102C140.093 27.5969 140.053 32.3602 139.906 37.0002C139.846 38.8602 138.89 39.8602 137.036 40.0002C136.143 40.0669 135.29 39.5802 134.476 38.5402C134.101 38.0612 133.9 37.4687 133.906 36.8602C133.986 32.2869 133.976 27.7969 133.876 23.3902C133.696 15.2502 123.626 15.7302 123.916 23.6702C124.09 28.5636 124.06 33.0369 123.826 37.0902C123.801 37.5731 123.634 38.0387 123.346 38.4302C121.813 40.5169 120.16 40.5302 118.386 38.4702C117.961 37.9669 117.73 37.328 117.736 36.6702C117.756 29.0702 117.76 21.8602 117.746 15.0402C117.736 12.6402 120.136 10.1002 122.396 12.0402C122.66 12.2644 122.978 12.4141 123.318 12.4739C123.657 12.5337 124.005 12.5013 124.326 12.3802C129.053 10.5936 133.093 11.3102 136.446 14.5302C136.72 14.7902 136.996 14.7936 137.276 14.5402Z" fill="white"/>
</svg>
