<svg width="55" height="62" viewBox="0 0 55 62" fill="none" xmlns="http://www.w3.org/2000/svg">
<path d="M53.28 7.91C53.28 6.07735 52.552 4.31977 51.2561 3.02389C49.9602 1.72802 48.2026 1 46.37 1H7.91C6.07735 1 4.31977 1.72802 3.02389 3.02389C1.72802 4.31977 1 6.07735 1 7.91V54.07C1 55.9026 1.72802 57.6602 3.02389 58.9561C4.31977 60.252 6.07735 60.98 7.91 60.98H46.37C48.2026 60.98 49.9602 60.252 51.2561 58.9561C52.552 57.6602 53.28 55.9026 53.28 54.07V7.91Z" stroke="#196E89" stroke-width="2"/>
<path d="M19.5406 19.15C25.6806 18.81 29.2939 18.79 30.3806 19.09C33.7206 20.0034 35.2006 22.0367 34.8206 25.19C34.5906 27.14 33.2806 28.4 32.0506 29.78C31.7412 30.1228 31.5609 30.5623 31.5408 31.0225C31.5207 31.4827 31.6621 31.9346 31.9406 32.3C32.9506 33.65 34.4606 35.02 34.7906 36.68C35.2973 39.2334 34.3873 41.2234 32.0606 42.65C29.7906 44.03 27.7806 43.56 26.0406 41.68C23.2273 38.6334 20.5606 35.9767 18.0406 33.71C17.7332 33.4351 17.3565 33.2485 16.9506 33.17C14.5639 32.6834 13.5039 33.71 13.7706 36.25C13.8227 36.7436 14.0329 37.2095 14.3706 37.58C17.5306 40.9734 20.8239 44.3134 24.2506 47.6C25.0306 48.3534 25.9306 48.7734 26.9506 48.86C34.7706 49.55 41.8706 44.02 40.2006 35.59C39.9206 34.17 39.1906 32.86 38.6106 31.54C38.5358 31.3723 38.5005 31.1888 38.5074 31.0034C38.5143 30.8181 38.5633 30.6357 38.6506 30.47C41.7573 24.6234 40.8006 19.64 35.7806 15.52C33.4906 13.64 30.2206 13.36 27.3006 13.33C23.3473 13.2834 19.5606 13.3634 15.9406 13.57C14.3073 13.6634 13.4739 14.53 13.4406 16.17C13.3906 18.95 12.5806 25.38 14.6406 27.55C17.4206 30.47 20.7039 33.7434 24.4906 37.37C25.5973 38.43 26.8273 38.6067 28.1806 37.9C28.4073 37.78 28.5873 37.6 28.7206 37.36C29.5006 35.9 29.3206 34.5734 28.1806 33.38C25.8939 30.9934 23.2439 28.35 20.2306 25.45C18.6406 23.92 18.7506 21.78 18.9206 19.75C18.9539 19.37 19.1606 19.17 19.5406 19.15Z" stroke="#055E6A" stroke-width="2"/>
<path d="M53.28 54.07C53.28 55.9026 52.552 57.6602 51.2561 58.9561C49.9602 60.252 48.2026 60.98 46.37 60.98H7.91C6.07735 60.98 4.31977 60.252 3.02389 58.9561C1.72802 57.6602 1 55.9026 1 54.07V7.91C1 6.07735 1.72802 4.31977 3.02389 3.02389C4.31977 1.72802 6.07735 1 7.91 1H46.37C48.2026 1 49.9602 1.72802 51.2561 3.02389C52.552 4.31977 53.28 6.07735 53.28 7.91V54.07ZM19.54 19.15C25.68 18.81 29.2933 18.79 30.38 19.09C33.72 20.0033 35.2 22.0367 34.82 25.19C34.59 27.14 33.28 28.4 32.05 29.78C31.7406 30.1228 31.5603 30.5623 31.5402 31.0225C31.5201 31.4826 31.6615 31.9345 31.94 32.3C32.95 33.65 34.46 35.02 34.79 36.68C35.2967 39.2333 34.3867 41.2233 32.06 42.65C29.79 44.03 27.78 43.56 26.04 41.68C23.2267 38.6333 20.56 35.9767 18.04 33.71C17.7326 33.435 17.3559 33.2484 16.95 33.17C14.5633 32.6833 13.5033 33.71 13.77 36.25C13.8221 36.7435 14.0323 37.2095 14.37 37.58C17.53 40.9733 20.8233 44.3133 24.25 47.6C25.03 48.3533 25.93 48.7733 26.95 48.86C34.77 49.55 41.87 44.02 40.2 35.59C39.92 34.17 39.19 32.86 38.61 31.54C38.5352 31.3722 38.4999 31.1888 38.5068 31.0034C38.5137 30.8181 38.5627 30.6357 38.65 30.47C41.7567 24.6233 40.8 19.64 35.78 15.52C33.49 13.64 30.22 13.36 27.3 13.33C23.3467 13.2833 19.56 13.3633 15.94 13.57C14.3067 13.6633 13.4733 14.53 13.44 16.17C13.39 18.95 12.58 25.38 14.64 27.55C17.42 30.47 20.7033 33.7433 24.49 37.37C25.5967 38.43 26.8267 38.6067 28.18 37.9C28.4067 37.78 28.5867 37.6 28.72 37.36C29.5 35.9 29.32 34.5733 28.18 33.38C25.8933 30.9933 23.2433 28.35 20.23 25.45C18.64 23.92 18.75 21.78 18.92 19.75C18.9533 19.37 19.16 19.17 19.54 19.15Z" fill="#04A8C0"/>
<path d="M18.9206 19.75C18.7506 21.78 18.6406 23.92 20.2306 25.45C23.2439 28.35 25.8939 30.9934 28.1806 33.38C29.3206 34.5734 29.5006 35.9 28.7206 37.36C28.5873 37.6 28.4073 37.78 28.1806 37.9C26.8273 38.6067 25.5973 38.43 24.4906 37.37C20.7039 33.7434 17.4206 30.47 14.6406 27.55C12.5806 25.38 13.3906 18.95 13.4406 16.17C13.4739 14.53 14.3073 13.6634 15.9406 13.57C19.5606 13.3634 23.3473 13.2834 27.3006 13.33C30.2206 13.36 33.4906 13.64 35.7806 15.52C40.8006 19.64 41.7573 24.6234 38.6506 30.47C38.5633 30.6357 38.5143 30.8181 38.5074 31.0034C38.5005 31.1888 38.5358 31.3723 38.6106 31.54C39.1906 32.86 39.9206 34.17 40.2006 35.59C41.8706 44.02 34.7706 49.55 26.9506 48.86C25.9306 48.7734 25.0306 48.3534 24.2506 47.6C20.8239 44.3134 17.5306 40.9734 14.3706 37.58C14.0329 37.2095 13.8227 36.7436 13.7706 36.25C13.5039 33.71 14.5639 32.6834 16.9506 33.17C17.3565 33.2485 17.7332 33.4351 18.0406 33.71C20.5606 35.9767 23.2273 38.6334 26.0406 41.68C27.7806 43.56 29.7906 44.03 32.0606 42.65C34.3873 41.2234 35.2973 39.2334 34.7906 36.68C34.4606 35.02 32.9506 33.65 31.9406 32.3C31.6621 31.9346 31.5207 31.4827 31.5408 31.0225C31.5609 30.5623 31.7412 30.1228 32.0506 29.78C33.2806 28.4 34.5906 27.14 34.8206 25.19C35.2006 22.0367 33.7206 20.0034 30.3806 19.09C29.2939 18.79 25.6806 18.81 19.5406 19.15C19.1606 19.17 18.9539 19.37 18.9206 19.75Z" fill="#061414"/>
</svg>
